<svg width="256" height="256" viewBox="0 0 256 256" fill="none" xmlns="http://www.w3.org/2000/svg">
<rect width="256" height="256" rx="40" fill="white"/>
<path d="M201.624 193.97V203H51.0543V193.97H71.4243V56.21H128.544C138.484 56.21 147.024 57.4 154.164 59.78C161.444 62.16 166.904 65.38 170.544 69.44C177.124 77 180.414 85.54 180.414 95.06C180.414 106.54 176.704 115.08 169.284 120.68C166.764 122.64 165.014 123.9 164.034 124.46C163.054 124.88 161.304 125.65 158.784 126.77C167.884 128.73 175.094 132.86 180.414 139.16C185.874 145.32 188.604 153.02 188.604 162.26C188.604 176.12 183.144 186.69 172.224 193.97H201.624ZM104.184 175.28H126.654C136.034 175.28 143.034 174.16 147.654 171.92C152.414 169.54 154.794 164.99 154.794 158.27C154.794 151.41 152.274 146.93 147.234 144.83C142.334 142.59 134.424 141.47 123.504 141.47H104.184V175.28ZM104.184 115.64H119.724C128.824 115.64 135.544 114.66 139.884 112.7C144.364 110.74 146.604 106.54 146.604 100.1C146.604 93.52 144.574 89.18 140.514 87.08C136.454 84.98 129.594 83.93 119.934 83.93H104.184V115.64Z" fill="#0660FF"/>
</svg>
